<?xml version="1.0" standalone="no"?>
<!DOCTYPE svg PUBLIC "-//W3C//DTD SVG 20010904//EN"
 "http://www.w3.org/TR/2001/REC-SVG-20010904/DTD/svg10.dtd">
<svg version="1.0" xmlns="http://www.w3.org/2000/svg"
 width="128.000000pt" height="128.000000pt" viewBox="0 0 128.000000 128.000000"
 preserveAspectRatio="xMidYMid meet">

<g transform="translate(0.000000,128.000000) scale(0.100000,-0.100000)"
fill="#000000" stroke="none">
<path d="M0 640 l0 -640 640 0 640 0 0 640 0 640 -640 0 -640 0 0 -640z m327
373 l92 -74 39 25 c47 30 133 56 182 56 51 0 130 -25 175 -55 l37 -26 32 24
c17 14 62 50 101 80 38 31 71 54 73 53 2 -2 -29 -54 -68 -115 l-72 -111 27
-54 c57 -116 57 -249 1 -372 l-26 -57 71 -109 c39 -61 69 -112 67 -114 -2 -1
-48 32 -102 75 l-98 78 -66 -34 c-113 -58 -228 -55 -327 8 l-46 29 -100 -81
c-55 -45 -102 -79 -104 -77 -2 2 29 54 69 115 l73 111 -28 59 c-56 115 -57
251 0 366 l28 57 -52 78 c-118 178 -119 177 22 65z"/>
<path d="M433 875 c-7 -8 -13 -19 -13 -25 0 -5 -4 -10 -10 -10 -5 0 -10 -13
-10 -30 0 -16 -4 -30 -10 -30 -6 0 -10 -58 -10 -154 0 -93 4 -157 10 -161 6
-3 10 -15 10 -26 0 -12 7 -19 20 -19 11 0 20 -4 20 -10 0 -5 14 -10 30 -10 17
0 30 -4 30 -10 0 -6 62 -10 166 -10 172 0 194 5 194 44 0 9 5 16 10 16 6 0 10
73 10 200 0 110 -4 200 -8 200 -5 0 -15 11 -22 25 -9 16 -22 25 -37 25 -25 0
-53 -21 -53 -39 0 -6 -4 -11 -10 -11 -5 0 -10 -13 -10 -30 l0 -30 -100 0 -100
0 0 30 c0 17 -4 30 -8 30 -5 0 -15 11 -22 25 -15 28 -57 34 -77 10z m73 -29
c8 -8 14 -26 14 -40 0 -14 5 -26 10 -26 6 0 10 -7 10 -15 0 -12 18 -15 100
-15 82 0 100 3 100 15 0 8 5 15 10 15 6 0 10 12 10 26 0 31 21 54 50 54 47 0
50 -15 50 -224 0 -124 -4 -196 -10 -196 -5 0 -10 -9 -10 -20 0 -19 -7 -20
-170 -20 -107 0 -170 4 -170 10 0 6 -12 10 -26 10 -29 0 -53 24 -54 53 0 9 -4
17 -10 17 -6 0 -10 53 -10 139 0 83 4 142 10 146 6 3 10 17 10 31 0 48 53 72
86 40z"/>
<path d="M513 695 c-8 -8 -13 -43 -13 -85 0 -62 3 -74 25 -95 23 -24 31 -25
135 -25 115 0 140 8 140 44 0 9 5 16 10 16 6 0 10 24 10 53 0 40 -5 58 -24 80
-23 27 -24 27 -147 27 -94 -1 -127 -4 -136 -15z m260 -35 c36 -39 36 -91 2
-125 -22 -23 -32 -25 -115 -25 -83 0 -93 2 -115 25 -19 18 -25 35 -25 70 0 79
9 85 126 85 99 0 101 0 127 -30z"/>
</g>
</svg>
